<svg width="185" height="96" viewBox="0 0 185 96" fill="none" xmlns="http://www.w3.org/2000/svg">
<path d="M185 0H0L79.8097 90.1011C86.8489 97.9663 98.2503 97.9663 105.289 90.1011L185 0Z" fill="#81B3D3"/>
<path d="M42.8296 0.697266L92.0043 58.8399L140.882 1.0955L42.8296 0.697266Z" fill="#23A9E1"/>
<path d="M120.954 17.2243C115.898 17.2243 110.941 17.3238 105.884 17.3238C111.833 10.4543 114.51 11.1512 120.954 17.2243Z" fill="white"/>
<path d="M80.1073 22.5993C88.931 22.5993 97.7547 22.5993 106.578 22.5993C104.596 21.4046 99.9358 15.5306 97.3581 17.7209C97.1598 17.92 89.9224 8.86011 85.1636 13.2407C80.9996 17.024 79.1159 12.7429 74.357 15.7297C69.1025 19.3138 77.5296 21.4046 80.1073 22.5993Z" fill="white"/>
<path d="M92.3019 0H41.8384V22.4008L92.0045 83.6298L92.3019 83.2315L142.567 23.0977V0H92.3019ZM54.4295 1.79207H59.8823V18.9163L54.4295 12.4449V1.79207ZM53.6363 11.5489L48.6792 5.67488V1.79207H53.6363V11.5489ZM72.7709 8.86077L67.1197 1.79207H72.7709V8.86077ZM66.2274 12.644L60.6755 1.79207H66.2274V12.644ZM60.5763 3.38501L66.0292 14.0379C63.2532 16.1286 61.3695 18.0202 60.5763 18.9163V3.38501V3.38501ZM67.0206 2.88722L72.5726 9.75681C71.482 10.3542 70.3914 11.0511 69.4991 11.6484C68.6069 12.2458 67.8137 12.8431 67.0206 13.4405V2.88722ZM73.564 2.6881L78.3228 6.86959C76.6374 7.5665 75.0511 8.36298 73.564 9.15945V2.6881ZM79.116 6.57091L73.7623 1.79207H79.7108V6.37179C79.4134 6.37179 79.3143 6.47135 79.116 6.57091ZM98.0522 1.79207H103.009L98.0522 4.18149V1.79207ZM92.3019 1.79207H96.6642L92.3019 3.88281V1.79207ZM91.4096 3.78325L87.2457 1.79207H91.4096V3.78325ZM85.9568 4.28105L80.9005 1.79207H85.9568V4.28105ZM80.4048 2.38942L85.0645 4.67928C83.4782 5.07752 81.892 5.47576 80.4048 5.97355V2.38942ZM86.7499 2.38942L90.1208 3.98237C88.9311 4.08193 87.8405 4.18149 86.6508 4.38061V2.38942H86.7499ZM97.0608 2.48898V4.38061C95.9702 4.18149 94.8796 4.08193 93.6899 3.98237L97.0608 2.48898ZM103.505 2.38942V6.07311C102.018 5.57532 100.432 5.07752 98.7462 4.67928L103.505 2.38942ZM104.199 1.79207H110.048L104.695 6.57091C104.496 6.47135 104.397 6.47135 104.199 6.37179V1.79207ZM117.682 1.79207H123.234L117.682 12.644V1.79207ZM111.139 1.79207H116.79L111.139 8.76121V1.79207ZM110.346 2.6881V9.15945C108.859 8.36298 107.272 7.5665 105.587 6.86959L110.346 2.6881ZM116.889 2.88722V13.3409C116.195 12.8431 115.402 12.3453 114.609 11.748C113.618 11.0511 112.428 10.3542 111.238 9.65725L116.889 2.88722ZM123.234 3.38501V18.518C122.144 17.5224 120.359 15.8299 117.782 13.9383L123.234 3.38501ZM124.028 19.3145V1.79207H129.48V13.1418L124.028 19.3145C124.028 19.4141 124.127 19.4141 124.028 19.3145ZM130.274 1.79207H135.231V6.47135L130.274 12.2458V1.79207ZM47.9852 1.79207V4.67928L45.5067 1.79207H47.9852V1.79207ZM60.6755 19.9118L60.7746 20.0114C60.7746 20.0114 64.3437 16.1286 69.8957 12.4449C75.1503 8.96033 83.0817 4.8784 92.0045 4.97796C100.828 4.97796 108.958 9.15945 114.113 12.644C119.665 16.3277 123.334 20.111 123.433 20.2105L119.566 24.6907C112.725 25.5867 107.768 30.7638 101.126 29.6687C97.7548 29.0713 97.6556 27.1797 96.6642 25.1885C95.9702 23.6951 94.7805 23.8942 93.1942 23.2969C91.8062 22.6995 90.9139 21.6044 88.0388 22.2017C85.5602 22.7991 85.2628 26.6819 82.0903 26.4828C80.4048 26.3832 80.3057 23.9938 77.9263 21.007C71.6803 13.4405 65.8309 14.5356 61.8652 21.5048L91.9054 57.2466L60.6755 19.9118ZM135.925 5.47576V1.79207H139.097L135.925 5.47576Z" fill="#491213"/>
<path d="M87.9395 70.5866L92.0043 64.1152L95.97 70.5866L92.0043 77.0579L87.9395 70.5866Z" fill="#23A9E1"/>
<path d="M64.9386 32.1574C65.4343 32.7548 65.8308 33.4517 65.7317 34.2482C65.6326 34.8456 64.8394 35.8411 65.4343 36.0403C66.1283 35.1442 66.9214 34.1486 67.6154 33.2526C67.0205 33.0535 62.2617 27.4782 62.2617 26.7812C61.1711 27.3786 60.1797 27.976 59.0891 28.4738C59.2874 29.1707 60.378 28.4738 60.9729 28.4738C61.766 28.5733 62.3609 29.0711 62.9557 29.6685C61.2703 31.0623 57.1063 34.6464 56.6106 34.746C56.4123 34.746 55.52 34.1486 55.52 34.6464C55.52 34.9451 56.4123 35.642 56.5114 35.8411C57.2054 36.7372 57.9986 37.6332 58.6926 38.5292C59.2874 38.2306 58.5934 37.8323 58.8909 37.3345C59.1883 36.9363 63.7488 33.0535 64.9386 32.1574Z" fill="white"/>
<path d="M59.6837 25.1882C60.0803 25.0886 60.2786 25.5864 60.6751 25.0886C59.882 24.093 59.0889 23.197 58.2957 22.2014C57.8992 21.8031 57.5026 21.3053 57.6017 22.2014C57.7009 22.7987 51.554 27.8763 51.1575 27.9758C50.6617 28.1749 50.3643 27.5776 50.0669 28.0754C50.7609 28.9714 51.554 29.7679 52.248 30.6639C52.4463 30.9626 52.7437 31.2613 52.942 31.5599C53.2395 31.8586 53.1403 30.863 53.1403 30.9626C53.0412 30.4648 53.636 30.0666 54.0326 29.7679C55.5197 28.4736 59.2872 25.1882 59.6837 25.1882Z" fill="white"/>
<path d="M50.9593 24.2925C49.1748 24.7902 47.291 24.0933 46.7953 22.3013C46.2996 20.5092 47.3902 18.518 48.8773 17.5224C50.2653 16.5268 52.4465 16.5268 53.2396 18.3189C53.537 19.1154 53.4379 20.0114 53.1405 20.8079C52.9422 21.3057 52.5456 21.8035 53.2396 22.1022C54.1319 21.007 54.925 19.9118 55.8173 18.8167C54.7267 18.2193 54.3302 17.1242 53.537 16.2282C52.6447 15.133 51.455 14.1374 50.067 13.9383C47.1919 13.5401 44.5151 16.5268 44.3168 19.1154C44.2176 20.6088 44.7133 21.903 45.5065 23.0977C46.2996 24.0933 47.3902 24.6907 47.8859 25.8854C48.1833 25.985 50.5627 24.8898 51.1576 24.5911C51.0585 24.4916 51.0585 24.392 50.9593 24.2925C50.9593 24.2925 50.2653 24.4916 50.9593 24.2925Z" fill="white"/>
<path d="M89.9222 60.5323C88.7324 59.7358 85.9565 55.853 85.3616 55.2557C85.2625 55.1561 85.1633 54.957 85.0642 54.8574C85.0642 54.8574 84.7667 55.0565 84.8659 55.0565C84.6676 55.1561 84.965 55.6539 84.7667 55.9526C83.9736 57.1473 79.0165 60.9305 78.8182 61.1297C78.2233 61.5279 77.6285 60.9305 77.3311 61.4283C78.0251 62.3244 80.107 64.9129 80.3053 65.0125C80.801 65.112 80.4045 64.216 80.5036 64.0169C80.6028 63.6186 83.0813 61.6275 83.9736 60.831C84.271 60.5323 84.6676 61.2292 84.8659 61.5279C85.1633 62.0257 85.3616 62.5235 85.1633 63.1208C85.0642 63.5191 84.4693 64.0169 84.8659 64.3156C85.4607 63.6186 87.2453 61.5279 87.4436 61.3288C87.741 61.0301 86.8487 61.3288 86.9479 61.2292C86.5513 61.4283 86.2539 61.4283 85.8573 61.2292C85.7582 61.1297 84.7667 60.1341 84.8659 60.0345C85.2625 59.6363 85.8573 59.0389 86.353 58.9394C87.2453 58.7402 87.9393 60.4327 88.0384 61.0301C88.1376 61.6275 88.1376 62.2248 87.9393 62.8222C87.8402 63.2204 87.4436 63.5191 87.9393 63.7182C88.6333 62.7226 89.3273 61.8266 90.0213 60.831C90.2196 60.6319 90.0213 60.5323 89.9222 60.5323C90.1204 60.5323 89.823 60.4327 89.9222 60.5323Z" fill="white"/>
<path d="M79.8099 56.3498C81.9911 54.4581 82.2885 51.2722 80.6031 49.0819C78.7194 46.5929 75.2494 45.9956 72.87 47.9868C70.6888 49.8784 70.3914 52.9647 72.0768 55.2546C74.0597 57.9427 77.2322 58.2414 79.8099 56.3498C79.7108 56.4493 80.9996 55.4537 79.8099 56.3498ZM79.3142 51.6705C78.7194 53.1639 77.1331 54.7568 75.646 55.3542C73.8614 56.0511 72.5725 54.5577 73.2665 52.7656C73.9605 51.2722 75.4477 49.6793 76.9348 49.0819C78.8185 48.385 80.0082 49.978 79.3142 51.6705C79.4134 51.4714 78.9177 52.5665 79.3142 51.6705Z" fill="white"/>
<path d="M73.4648 41.8152C73.9606 41.9148 74.3571 42.313 74.7537 41.8152C74.0597 40.9192 73.2666 40.0231 72.5726 39.2267C71.9777 39.5253 72.5726 39.7245 72.3743 40.2222C72.176 40.6205 69.7966 41.0187 69.2017 41.1183C69.4 40.5209 70.094 38.5297 70.3914 38.3306C70.8871 37.9324 71.2837 38.7289 71.6803 38.2311C70.788 37.1359 69.8957 36.0408 69.0034 34.9456C68.706 34.5474 68.4086 33.95 68.012 34.2487C68.012 34.2487 68.012 35.7421 67.9129 35.9412C67.8137 36.1403 67.0206 39.5253 66.0292 40.4214C65.5334 40.8196 63.848 42.313 63.3523 42.5121C62.8566 42.7112 62.5592 41.9148 62.1626 42.5121C62.9557 43.5077 63.848 44.5033 64.6412 45.4989C64.7403 45.5984 65.236 46.3949 65.4343 46.3949C65.93 46.4945 65.5334 45.4989 65.5334 45.2998C65.7317 44.9015 68.012 42.6117 69.0034 42.4125C70.1931 42.2134 71.9777 41.7156 73.4648 41.8152C73.0683 41.8152 73.7623 41.9148 73.4648 41.8152Z" fill="white"/>
<path d="M67.2188 22.7991C63.2531 22.6 64.8394 18.8167 67.6154 18.0202C70.1931 17.2238 75.646 19.7127 77.3314 21.4053C74.5554 22.3013 70.9863 22.1022 68.012 22.3013C67.8137 19.1154 67.0206 20.2105 67.2188 22.7991Z" fill="#DC6243"/>
<path d="M76.6375 35.2434C68.1112 35.1438 73.8615 22.002 76.7366 22.7985C80.1074 23.8936 79.7109 35.3429 76.6375 35.2434Z" fill="#DC6243"/>
<path d="M82.685 30.9631C81.8918 33.4521 80.3055 33.9499 80.5038 30.8636C80.7021 27.379 82.9824 28.1755 85.3618 26.8812C87.3447 25.7861 88.4352 21.7041 91.9052 24.0936C93.4915 25.1887 95.2761 24.2927 95.7718 25.8856C95.7718 25.7861 91.3104 36.1402 93.7889 36.1402C88.8318 36.1402 91.0129 30.2662 92.8966 26.2839C91.1121 27.1799 88.1378 32.9543 90.5172 33.8504C89.2284 35.5429 85.3618 37.7332 83.3789 36.1402C81.8918 35.0451 82.685 32.9543 82.685 30.9631Z" fill="#DC6243"/>
<path d="M86.7498 40.5209C83.2798 41.5165 78.7192 39.3262 84.2712 38.231C87.7412 37.5341 91.4095 38.9279 86.7498 40.5209C86.6507 40.5209 86.8489 40.5209 86.7498 40.5209Z" fill="#DC6243"/>
<path d="M91.1125 40.4205C90.4185 38.728 91.7073 36.8364 93.7893 38.2302C95.5739 39.4249 92.897 41.3165 91.1125 40.4205Z" fill="#DC6243"/>
<path d="M88.1378 45.0013C85.7584 44.3044 77.7278 44.404 82.9824 42.2136C84.6678 41.6163 93.0949 42.4128 88.1378 45.0013Z" fill="#DC6243"/>
<path d="M98.5478 48.2858C97.1598 47.091 95.6726 46.9915 94.3838 48.2858C92.5992 45.0003 86.155 46.0955 83.0815 45.5977C84.6678 49.6796 97.7546 50.4761 98.5478 48.2858Z" fill="#DC6243"/>
<path d="M96.6642 50.775C93.4916 50.6755 90.0216 50.1777 87.1465 50.8746C89.0302 51.3724 93.4916 52.6666 89.3276 53.7618C90.8148 55.9521 93.2933 55.753 94.8796 53.8613C94.1856 53.5627 93.8882 53.1644 93.2933 52.7662C94.8796 52.4675 96.4659 51.5715 96.6642 50.775Z" fill="#DC6243"/>
<path d="M100.233 46.8915C94.9787 43.8052 96.2676 41.5153 100.63 39.325C102.91 38.2299 107.867 34.148 109.949 35.4422C106.678 39.325 103.406 43.1083 100.233 46.8915Z" fill="#DC6243"/>
<path d="M96.4659 39.6243C92.0045 35.0446 103.108 35.4429 104.893 33.8499C106.182 34.2481 115.6 25.5865 117.881 26.1838C116.195 28.0755 112.725 34.2481 110.148 34.2481C108.165 34.2481 106.182 33.9495 104.695 35.3433C102.514 37.434 98.8453 38.4296 96.4659 39.6243Z" fill="#F49774"/>
<path d="M97.9532 34.0497C95.4747 35.344 93.1944 30.1669 97.4575 30.6647C100.234 30.9634 103.109 30.4656 105.686 30.8638C103.704 33.1537 101.027 34.448 97.9532 34.0497Z" fill="#F4B1A4"/>
<path d="M110.445 52.2693C110.643 52.8666 110.742 53.5636 110.643 54.2605C110.544 55.1565 109.652 57.1477 108.462 56.5503C107.272 55.953 106.281 54.8578 105.289 53.9618C106.082 53.0658 106.776 52.2693 108.164 52.6675C108.561 52.7671 108.858 52.6675 108.462 52.3688C108.065 52.1697 105.388 50.3777 105.19 50.5768C104.893 50.8755 105.686 51.4728 105.388 52.0702C105.19 52.4684 104.794 52.8666 104.496 53.2649C103.802 52.6675 102.613 51.9706 103.406 50.975C103.901 50.2781 104.694 49.7803 105.488 49.6807C106.082 49.5812 107.272 50.079 107.47 49.4816C106.38 48.9838 105.289 48.486 104.199 47.8887C104.397 48.6851 100.927 52.3688 100.134 53.3644C100.035 53.464 99.4399 53.9618 99.4399 54.1609C99.4399 54.5591 100.035 54.2605 100.134 54.2605C100.63 54.0613 106.876 59.338 107.074 59.7362C107.173 60.0349 106.876 60.3336 107.074 60.4331C107.074 60.4331 107.272 60.6323 107.371 60.6323C107.768 60.1345 111.833 54.6587 112.725 54.4596C111.932 53.2649 111.139 52.0702 110.346 50.7759C109.751 51.0746 110.346 51.7715 110.445 52.2693Z" fill="white"/>
<path d="M104.298 58.9398C102.216 57.6455 98.746 60.234 98.2503 60.4331C97.2589 60.9309 96.4657 59.9353 96.9615 58.9398C97.4572 58.1433 98.3494 57.745 99.2417 57.6455C99.5392 57.6455 100.531 57.8446 100.729 57.6455C100.828 57.4464 100.927 57.4464 100.729 57.3468C99.8366 56.7494 99.0434 56.1521 98.1512 55.6543C97.9529 56.7494 96.7632 57.3468 96.0692 58.0437C95.276 58.9397 94.582 59.9353 94.582 61.2296C94.582 62.3248 95.276 63.3204 96.2675 63.9177C97.358 64.5151 98.5477 64.0173 99.5392 63.4199C100.134 63.0217 100.828 62.5239 101.423 62.2252C102.414 61.7274 103.703 62.1256 103.406 63.5195C103.108 64.6146 102.018 65.6102 101.026 65.8093C100.431 66.0085 99.7374 65.9089 99.1426 65.7098C98.746 65.6102 98.1512 65.0129 97.9529 65.6102C99.1426 66.4067 100.233 67.3027 101.423 68.0992C101.522 67.3027 101.919 67.0041 102.513 66.5063C103.207 65.9089 103.901 65.212 104.496 64.4155C105.686 62.723 106.083 60.3336 104.298 58.9398Z" fill="white"/>
<path d="M104.298 58.9385C105.289 59.5359 103.703 58.4408 104.298 58.9385V58.9385Z" fill="white"/>
<path d="M140.683 19.5136C139.989 20.2105 132.355 17.2237 131.76 16.7259C131.463 16.6263 131.463 15.4316 131.066 15.9294C130.67 16.4272 130.273 16.925 129.877 17.4228C129.48 17.9206 129.084 18.4184 128.588 18.9162C128.29 19.2149 128.092 19.414 128.588 19.6131C129.381 19.2149 133.942 26.8809 133.545 28.0757C132.851 28.4739 126.704 22.9981 126.506 22.6995C126.407 22.5999 126.803 21.7039 126.308 21.8034C126.109 21.8034 125.614 22.6995 125.415 22.8986C125.118 23.2968 124.82 23.5955 124.523 23.9937C124.82 24.4915 125.019 23.9937 125.514 23.9937C125.911 24.0933 127.299 25.288 127.696 25.6862C127.002 25.6862 125.019 25.7858 124.82 25.7858C123.928 25.8854 124.424 25.0889 123.829 24.8898C123.036 25.7858 122.342 26.6818 121.549 27.6774C121.152 28.1752 120.656 28.7726 120.26 29.2704C120.161 29.3699 120.26 29.2704 120.26 29.3699C120.557 29.6686 120.359 29.569 120.855 29.3699C121.35 29.1708 127.398 34.2483 127.596 34.547C127.993 34.9452 127.398 35.5426 127.993 35.7417C128.588 35.0448 129.183 34.2483 129.778 33.5514C129.877 33.4519 129.877 33.4519 129.778 33.3523C129.381 32.9541 129.282 33.5514 128.786 33.5514C128.29 33.4519 124.424 30.1664 122.937 28.9717C124.721 28.8721 130.174 28.673 131.066 28.673C131.364 28.673 132.157 29.569 132.157 29.8677C132.058 30.266 131.661 30.4651 132.256 30.6642C132.752 30.0668 133.248 29.569 133.743 28.9717L133.942 28.673C134.041 28.5735 134.041 28.5735 134.14 28.3743L134.338 28.1752C134.735 27.6774 136.123 26.184 135.924 26.0845C135.429 25.6862 135.23 26.5823 134.636 25.9849C134.338 25.7858 133.446 24.1928 133.248 23.7946C132.95 23.3964 133.842 22.8986 134.239 22.6995C135.032 22.2017 137.412 21.5047 137.709 22.9981C137.709 23.2968 137.412 23.4959 137.61 23.695C137.61 23.695 137.808 23.8942 137.907 23.8942C138.106 23.695 140.287 21.1065 141.179 19.9118C140.882 19.7127 140.782 19.6131 140.683 19.5136ZM133.347 21.7039C133.446 21.7039 133.545 21.6043 133.347 21.7039C133.049 21.903 132.653 22.2017 132.355 22.5003C131.86 21.6043 131.364 20.7083 130.769 19.8122C131.959 20.31 133.148 20.8078 134.239 21.3056C134.041 21.4052 133.743 21.5047 133.347 21.7039Z" fill="white"/>
<path d="M123.73 32.8554C121.351 30.8642 118.178 31.4616 116.195 33.6519C114.312 35.9417 114.51 39.3268 116.79 41.2184C119.07 43.11 122.441 42.6122 124.325 40.4219C126.209 38.132 126.109 34.747 123.73 32.8554ZM123.433 39.4263C123.433 39.4263 123.433 39.5259 123.433 39.4263C122.144 40.7206 120.062 39.5259 118.971 38.7294C117.881 37.9329 115.898 36.1409 117.088 34.6475C118.178 33.3532 120.161 34.4483 121.252 35.1453C122.441 35.9417 124.622 37.7338 123.532 39.3267C123.631 39.2272 123.631 39.2272 123.433 39.4263Z" fill="white"/>
<path d="M123.73 32.8549C124.919 33.8505 123.432 32.6558 123.73 32.8549V32.8549Z" fill="white"/>
<path d="M123.433 39.5258C123.433 39.4258 123.433 39.4258 123.433 39.5258C123.533 39.4258 123.533 39.4258 123.533 39.4258C123.433 39.4258 123.433 39.5258 123.433 39.5258Z" fill="white"/>
<path d="M117.187 41.9146C117.286 42.0141 117.484 42.2132 117.187 41.9146C114.311 39.7242 110.941 40.3216 108.759 43.0097C107.768 44.2044 106.777 45.3991 105.785 46.5938C106.182 47.0916 106.578 46.4943 107.074 46.793C107.471 47.0916 113.221 51.8705 113.32 52.1692C113.518 52.667 113.023 52.667 113.419 53.0652C113.617 53.1647 117.881 47.8881 118.277 46.8925C119.169 45.1004 118.575 43.2088 117.187 41.9146ZM115.898 48.6846C115.699 48.9833 115.898 48.7841 115.204 49.3815C114.906 49.6802 108.859 44.7022 109.057 44.5031C109.85 43.6071 111.635 42.9101 112.626 43.2088C114.807 43.7066 117.781 46.3947 115.898 48.6846Z" fill="white"/>
</svg>
