<svg width="460" height="350" viewBox="0 0 460 350" fill="none" xmlns="http://www.w3.org/2000/svg">
<path d="M165.4 69.9996L165.2 70.1996C163.8 71.6996 162.2 72.3996 160.7 72.3996L163.5 67.4996C165.3 64.3996 163.6 61.3996 160.8 61.3996C158.5 61.3996 156.7 62.2996 155 65.2996L153.5 67.8996L152.3 69.9996L152.1 70.1996C149.9 72.6996 147.8 74.6996 146.5 74.6996C145.8 74.6996 145.5 74.1996 146.2 73.0996L152.6 61.8996H155L155.9 60.4996H153.4L156.2 55.5996H153.2L150.4 60.4996H147.7L146.8 61.8996H149.5L143.5 72.2996C142.2 74.4996 143.1 76.5996 145.5 76.5996C147.2 76.5996 149.2 75.2996 151 73.4996C151 77.2996 156.3 78.0996 159.5 73.9996H160.2C162 73.9996 164.8 72.8996 166.3 71.0996C166.3 70.5996 165.8 70.1996 165.4 69.9996ZM159 70.1996H158.9C157.9 70.1996 157.1 70.9996 157.1 71.9996C157.1 72.3996 157.2 72.6996 157.4 72.9996V73.0996C156 75.4996 152.6 75.0996 154.3 71.8996L156.6 67.9996L158 65.5996C160.1 61.9996 163 63.3996 161.2 66.4996L159 70.1996Z" fill="#766458"/>
<path d="M206.9 69.9996L206.7 70.1996C204.5 72.6996 201.8 74.6996 199.7 74.6996C197.9 74.6996 196.8 73.4996 198.1 71.0996L198.4 70.5996C200.3 71.3996 204 70.9996 206.2 67.0996L206.6 66.3996C208.2 63.5996 206.7 61.5996 204.2 61.5996C201.8 61.5996 199.9 62.8996 198.6 65.0996L195.7 70.0996L195.5 70.2996C193.3 72.7996 191.2 74.7996 189.9 74.7996C189.2 74.7996 188.9 74.2996 189.6 73.1996L193.9 65.5996C195.2 63.2996 194 61.6996 192.3 61.6996C191 61.6996 189.6 62.3996 188.1 63.9996L192.9 55.6996H189.9L181.6 69.9996L181.4 70.1996C179.2 72.6996 177.1 74.6996 175.8 74.6996C175.1 74.6996 174.8 74.1996 175.5 73.0996L181.9 61.8996H184.3L185.2 60.4996H182.7L185.5 55.5996H182.5L179.7 60.4996H177L176.1 61.8996H178.8L172.8 72.2996C171.5 74.4996 172.4 76.5996 174.8 76.5996C176 76.5996 177.3 75.9996 178.6 74.9996L177.8 76.2996H180.8L185.3 68.3996C189.9 62.5996 191.9 63.3996 190.7 65.5996L186.8 72.3996C185.5 74.5996 186.4 76.6996 188.8 76.6996C190.6 76.6996 192.6 75.2996 194.4 73.4996C194.5 75.3996 196.1 76.6996 198.5 76.6996C201.9 76.6996 205.3 74.0996 207.7 71.1996C207.8 70.5996 207.3 70.1996 206.9 69.9996ZM201.2 65.7996C202.9 62.7996 206 63.2996 204.2 66.3996L203.8 67.0996C202.4 69.4996 200.4 69.4996 199.3 69.0996L201.2 65.7996Z" fill="#766458"/>
<path d="M316 70L315.8 70.2C314.7 71.5 313.4 72.6 312.2 73.5C313.2 70.6 312.9 66.3 314.8 62.4L312.6 61.2C311.4 62.9 308.7 66.8 305.9 70L305.7 70.2C303.5 72.7 301.4 74.7 300.1 74.7C299.4 74.7 299.1 74.2 299.8 73.1L306.2 61.9H303.2L297.9 71.2C295.6 73.3 293.9 74.4 293.3 74.2C292.6 73.9 293.3 72.8 293.7 72.1L299.5 61.9H296.5L291.8 70L291.6 70.2C290.2 71.7 288.6 72.4 287.1 72.4L289.9 67.5C291.7 64.4 290 61.4 287.2 61.4C284.9 61.4 283.1 62.3 281.4 65.3L279.9 67.9L278.7 70L278.5 70.2C276.3 72.7 273.6 74.7 271.5 74.7C269.7 74.7 268.6 73.5 269.9 71.1L270.2 70.6C272.1 71.4 275.8 71 278 67.1L278.4 66.4C280 63.6 278.5 61.6 276 61.6C273.6 61.6 271.7 62.9 270.4 65.1L267.5 70.1L267.3 70.3C264.8 73.2 262.7 75 260.3 76L267 64.5H265.2C265.2 63.3 263.9 61.6 262.1 61.6C260.5 61.6 258.2 62.9 257 65.1L254.1 70.1L253.9 70.3C251.7 72.8 249.6 74.8 248.3 74.8C247.6 74.8 247.3 74.3 248 73.2L251 68C252 66.2 251.5 65.1 250.6 63.9L248.9 61.9C248.5 61.4 248.5 60.7 249.1 60.2L247.5 58.5C245.8 60 245.7 61.7 246.7 63.1L247 63.4C245.7 65.3 243.9 67.8 241.9 70.1L241.7 70.3C240.3 71.8 238.7 72.5 237.2 72.5L240 67.6C241.8 64.5 240.1 61.5 237.3 61.5C235 61.5 233.2 62.4 231.5 65.4L230 68L228.8 70.1L228.6 70.3C226.1 73.2 224 75 221.6 76L228.3 64.5H226.5C226.5 63.3 225.2 61.6 223.4 61.6C221.8 61.6 219.5 62.9 218.3 65.1L214.1 72.4C212.8 74.6 213.7 76.7 216.1 76.7C216.9 76.7 217.9 76.3 219 75.7L218.2 77.1C214.2 78.3 211.6 80 211.6 82.2C211.6 85.1 216 85.7 218.2 82L220.5 78.1C222.9 77.4 225.2 75.9 227.7 73.6C227.7 77.4 233 78.2 236.2 74.1H236.9C238.7 74.1 241.5 73 243 71.2C244.4 69.5 245.6 68 248 64.8L248.4 65.3C248.8 65.8 248.9 66.4 248.6 67L245.4 72.5C244.1 74.7 245 76.8 247.4 76.8C248.9 76.8 250.6 75.8 252.2 74.4C252.2 75.8 253.1 76.8 254.8 76.8C255.6 76.8 256.6 76.4 257.7 75.8L257 77C253 78.2 250.4 79.9 250.4 82.1C250.4 85 254.8 85.6 257 81.9L259.3 78C261.7 77.2 264.1 75.8 266.6 73.4C266.7 75.3 268.2 76.6 270.7 76.6C273.1 76.6 275.6 75.2 277.6 73.4C277.5 77.3 282.9 78.1 286.1 74H286.8C287.7 74 289 73.7 290.1 73.1C289.3 75.2 290 76.6 291.7 76.6C293.3 76.6 295.2 75.1 296.6 73.7C296.3 75.3 297.3 76.6 299.2 76.6C301.7 76.6 304.5 74 307 71.1C308.7 69.1 310.2 67 311.3 65.6C310.1 68.7 310.8 74.3 307.9 74.3C306.9 74.3 306.5 73.2 306.5 73.2L304.6 74.2C304.6 74.2 305.1 76.6 307.9 76.6C308.2 76.6 308.4 76.6 308.7 76.5H308.8C311.9 76.1 314.9 73.7 317.1 71.1C317 70.6 316.5 70.1 316 70ZM273.1 65.8C274.8 62.8 277.9 63.3 276.1 66.4L275.7 67.1C274.3 69.5 272.3 69.5 271.2 69.1L273.1 65.8ZM215.9 81.4C215.3 82.5 214.3 82.4 214.3 81.5C214.3 80.7 215 79.8 217.3 78.9L215.9 81.4ZM217.3 74.7C216.6 74.7 216.3 74.2 217 73.1L221.2 65.8C222.8 63 226 63.7 224.5 66.4L222.2 70.4C220.4 73.3 218.5 74.7 217.3 74.7ZM235.7 70.2H235.6C234.6 70.2 233.8 71 233.8 72C233.8 72.4 233.9 72.7 234.1 73V73.1C232.7 75.5 229.3 75.1 231 71.9L233.3 68L234.7 65.6C236.8 62 239.7 63.4 237.9 66.5L235.7 70.2ZM254.5 81.4C253.9 82.5 252.9 82.4 252.9 81.5C252.9 80.7 253.6 79.8 255.9 78.9L254.5 81.4ZM255.9 74.7C255.2 74.7 254.9 74.2 255.6 73.1L259.8 65.8C261.4 63 264.6 63.7 263.1 66.4L260.8 70.4C259 73.3 257.1 74.7 255.9 74.7ZM285.4 70.2H285.3C284.3 70.2 283.5 71 283.5 72C283.5 72.4 283.6 72.7 283.8 73V73.1C282.4 75.5 279 75.1 280.7 71.9L283 68L284.4 65.6C286.5 62 289.4 63.4 287.6 66.5L285.4 70.2Z" fill="#766458"/>
<path d="M130.3 66.8008H101.4V68.8008H130.3V66.8008Z" fill="#766458"/>
<path d="M357.3 66.8008H328.4V68.8008H357.3V66.8008Z" fill="#766458"/>
<path d="M163.2 0H170.9L169.7 44.9H155.2L153.2 26.4L151.2 44.9H136.6L135.5 0H143.1L143.7 37.2H144.5L149.4 0H157L161.9 37.2H162.7L163.2 0Z" fill="#81B3D3"/>
<path d="M195 37.2V45H174.1V0H195V7.7H181.7V18.5H192.3V26.2H181.7V37.1H195V37.2Z" fill="#81B3D3"/>
<path d="M216.4 37.2V45H198.1V0H205.7V37.2H216.4Z" fill="#81B3D3"/>
<path d="M232.6 28.4L240.3 26.6V40.2C240.3 42.8 238.1 44.9 235.6 44.9H224.1C221.5 44.9 219.4 42.7 219.4 40.2V4.7C219.4 2.1 221.5 0 224.1 0H235.6C238.1 0 240.3 2.1 240.3 4.7V13.8L232.6 15.6V7.6H227.1V37.1H232.6V28.4Z" fill="#81B3D3"/>
<path d="M261.1 0C263.6 0 265.8 2.1 265.8 4.7V40.1C265.8 42.7 263.6 44.8 261.1 44.8H249.6C247 44.8 244.9 42.6 244.9 40.1V4.7C244.9 2.1 247 0 249.6 0H261.1ZM258.1 7.7H252.6V37.2H258.1V7.7Z" fill="#81B3D3"/>
<path d="M290.8 0H298.4V44.9H290.8V22.8L287.7 34.2H280.2L277.2 22.8V44.9H269.6V0H277.2L284 21.7L290.8 0Z" fill="#81B3D3"/>
<path d="M323.1 37.2V45H302.2V0H323.1V7.7H309.8V18.5H320.4V26.2H309.8V37.1H323.1V37.2Z" fill="#81B3D3"/>
<path d="M44.5002 157.6C40.9002 154.6 36.4002 152.6 31.6002 152.6C28.0002 152.6 23.3002 154.7 23.3002 158.9C23.3002 163.3 28.6002 165 31.9002 166L36.9002 167.5C47.3002 170.6 55.4002 175.8 55.4002 187.9C55.4002 195.3 53.6002 203 47.7002 208C41.8002 213 34.0002 215 26.5002 215C17.1002 215 7.8002 211.8 0.200195 206.5L8.3002 191C13.2002 195.3 18.9002 198.7 25.6002 198.7C30.2002 198.7 35.0002 196.4 35.0002 191.2C35.0002 185.7 27.4002 183.9 23.2002 182.7C11.0002 179.1 3.0002 176 3.0002 161.5C3.0002 146.3 13.8002 136.4 28.8002 136.4C36.3002 136.4 45.6002 138.8 52.2002 142.6L44.5002 157.6Z" fill="white"/>
<path d="M91.8004 154.8V167.3H113.7V183.8H91.8004V196.7H115V213.2H72.4004V138.4H115V154.9L91.8004 154.8Z" fill="white"/>
<path d="M129.4 138.4H157C177.8 138.4 195 154.8 195 175.8C195 196.8 177.7 213.2 157 213.2H129.4V138.4ZM148.9 196.7H153.3C164.9 196.7 174.8 190.3 174.8 175.8C174.8 162.4 166 154.9 153.5 154.9H148.9V196.7Z" fill="white"/>
<path d="M286.901 174.4C286.901 198.6 269.501 215.7 245.501 215.7C221.501 215.7 204.101 198.6 204.101 174.4C204.101 151.8 224.001 135.9 245.501 135.9C267.001 135.9 286.901 151.8 286.901 174.4ZM224.301 174.5C224.301 187.4 233.801 196.8 245.401 196.8C257.001 196.8 266.501 187.4 266.501 174.5C266.501 164.2 257.001 154.7 245.401 154.7C233.901 154.7 224.301 164.2 224.301 174.5Z" fill="white"/>
<path d="M297.2 138.4H316.7L352.3 184.2H352.5V138.4H372V213.2H352.5L316.9 167.3H316.7V213.2H297.2V138.4Z" fill="white"/>
<path d="M407.3 200.2L402.1 213.2H381.5L410.3 138.4H431.5L459.7 213.2H439L434.1 200.2H407.3ZM420.9 161.5H420.7L412.7 185.3H428.9L420.9 161.5Z" fill="white"/>
<path d="M108.1 287.7C115.8 285.1 116.3 275.5 108.8 275.5C106.7 275.5 104.2 277 102.5 279.9L92.3 297.6C91.8 298.4 91.4 299.1 90.8 299.8C88.2 296.2 88.9 290.8 92.6 288.4L91.1 286.5C83.1 291.6 85.5 306.2 98.8 306.2C110.1 306.2 115.4 292.6 108.1 287.7ZM98.7 303.3C96.4 303.3 94.7 302.8 93.2 302C93.9 301.2 94.5 300.3 95.1 299.3L101.5 288.2L102.5 288.3C111.4 290.2 107.9 303.3 98.7 303.3ZM102.8 286L105.9 280.7C108.7 275.9 112.2 278.7 110.3 282.3C108.8 285.1 106.7 285.9 102.8 286Z" fill="white"/>
<path d="M140.2 300.001C139.6 302.201 140.8 304.101 143.3 304.101C144.8 304.101 146.7 303.101 148.6 301.601C148.8 303.101 150 304.101 151.9 304.101C153.9 304.101 156.1 302.701 158.3 300.701C157.9 302.701 158.8 304.101 160.7 304.101C162.8 304.101 165.1 302.201 166.9 300.501C166.5 302.501 167.7 304.101 170.1 304.101C173.2 304.101 176.8 300.701 180 297.101C180 297.001 179.9 297.001 179.9 296.901C182 294.501 183.8 291.901 185.2 290.101C183.7 294.001 184.5 301.101 180.9 301.101C179.6 301.101 179.1 299.701 179.1 299.701L176.7 300.901C176.7 300.901 177.4 304.001 180.9 304.001C181.3 304.001 181.6 304.001 182 303.901H182.1C184.9 303.501 187.6 301.801 190 299.701C190.1 302.201 192 304.001 195.1 304.001C199.4 304.001 203.7 300.601 206.8 297.001C206.5 296.501 205.9 295.901 205.4 295.701L205.1 296.001C202.4 299.201 198.9 301.701 196.2 301.701C193.9 301.701 192.5 300.201 194.2 297.201L194.6 296.501C197 297.501 201.6 297.001 204.5 292.101L205 291.201C207 287.701 205.1 285.101 202 285.101C198.9 285.101 196.5 286.701 194.9 289.501L191.2 295.801H191.1L190.8 296.101C189.4 297.701 187.7 299.201 186.2 300.201C187.4 296.601 187.1 291.001 189.5 286.201L186.7 284.701C185.1 286.901 181.7 291.801 178.3 295.801L178.4 295.901L178.3 296.101C175.6 299.301 172.9 301.801 171.2 301.801C170.4 301.801 169.9 301.201 170.8 299.701L178.9 285.501H175.1L168.4 297.301C165.5 299.901 163.3 301.401 162.6 301.101C161.7 300.701 162.6 299.301 163.1 298.501L170.5 285.601H166.7L160.7 296.001C160.6 295.901 160.5 295.901 160.4 295.801L160.1 296.101C157.4 299.301 154.7 301.801 153 301.801C152.2 301.801 151.7 301.201 152.6 299.701L158.7 289.001H156.5C156.6 287.401 155 285.201 152.5 285.201C150.5 285.201 147.6 286.801 146 289.601L142.2 296.201C142 296.001 141.8 295.901 141.6 295.801L141.3 296.101C138.6 299.301 135.1 301.801 132.4 301.801C130.1 301.801 128.7 300.301 130.4 297.301L134.3 290.501C136.5 286.701 140.4 287.401 138.1 291.301L137.6 292.201H140.7L141.2 291.301C143.2 287.801 141.3 285.201 138.2 285.201C135.1 285.201 132.7 286.801 131.1 289.601L127.3 296.101C127.2 296.001 127.1 296.001 127 295.901L126.7 296.201C124 299.401 120.5 301.901 117.8 301.901C115.5 301.901 114.1 300.401 115.8 297.401L116.2 296.701C118.6 297.701 123.2 297.201 126.1 292.301L126.6 291.401C128.6 287.901 126.7 285.301 123.6 285.301C120.5 285.301 118.1 286.901 116.5 289.701L112.5 296.501C110.1 300.501 112.2 304.301 116.7 304.301C120 304.301 123.4 302.301 126.1 299.701C126 302.301 128 304.301 131.2 304.301C134.4 304.101 137.5 302.301 140.2 300.001ZM198.2 290.401C200.4 286.601 204.3 287.301 202 291.201L201.5 292.101C199.7 295.201 197.2 295.101 195.8 294.601L198.2 290.401ZM144 299.701L149.3 290.501C151.3 287.001 155.4 287.901 153.5 291.301L150.5 296.501C148.2 300.101 145.9 301.801 144.4 301.801C143.6 301.701 143.1 301.201 144 299.701ZM119.8 290.401C122 286.601 125.9 287.301 123.6 291.201L123.1 292.101C121.3 295.201 118.8 295.101 117.4 294.601L119.8 290.401Z" fill="white"/>
<path d="M248.4 304.1C252.7 304.1 257 300.7 260.1 297.1C259.8 296.6 259.2 296 258.7 295.8L258.4 296.1C255.7 299.3 252.2 301.8 249.5 301.8C247.2 301.8 245.8 300.3 247.5 297.3L247.9 296.6C250.3 297.6 254.9 297.1 257.8 292.2L258.3 291.3C260.3 287.8 258.4 285.2 255.3 285.2C252.2 285.2 249.8 286.8 248.2 289.6L244.5 295.9C244.5 295.9 244.4 295.9 244.4 295.8L244.1 296.1C241.4 299.3 238.7 301.8 237 301.8C236.2 301.8 235.7 301.2 236.6 299.7L242.1 290.1C243.7 287.2 242.2 285.1 240.1 285.1C238.5 285.1 236.7 286 234.8 288L240.9 277.5H237L226.3 296C226.2 295.9 226 295.8 225.9 295.7L225.6 296C222.9 299.2 220.2 301.7 218.5 301.7C217.7 301.7 217.2 301.1 218.1 299.6L226.2 285.4H229.3L230.4 283.6H227.3L230.9 277.4H227.1L223.5 283.6H220.1L219 285.4H222.5L214.9 298.6C213.3 301.4 214.4 304 217.5 304C219.4 304 221.4 302.8 223.5 301L222 303.6H225.8L231.6 293.6C237.4 286.3 240 287.2 238.4 290L233.5 298.6C231.9 301.4 233 304 236.1 304C238.4 304 241 302.2 243.4 299.8C243.4 302.3 245.3 304.1 248.4 304.1ZM251.5 290.4C253.7 286.6 257.6 287.3 255.3 291.2L254.8 292.1C253 295.2 250.5 295.1 249.1 294.6L251.5 290.4Z" fill="white"/>
<path d="M363.4 295.8L363.1 296.1C360.4 299.3 357.7 301.8 356 301.8C355.2 301.8 354.7 301.2 355.6 299.7L368.4 277.5H364.6L359 287.1C358.3 286 357.1 285.1 355.5 285.1C353.5 285.1 350.6 286.7 349 289.5L345.3 295.9C345.2 295.9 345.1 295.8 345.1 295.8L344.8 296.1C342.1 299.3 339.4 301.8 337.7 301.8C336.9 301.8 336.4 301.2 337.3 299.7L342.8 290.1C344.4 287.2 342.9 285.1 340.8 285.1C339.2 285.1 337.4 286 335.5 287.9L336.9 285.4H333.1L327 295.9C326.9 295.8 326.8 295.7 326.6 295.7L326.3 296C323.6 299.2 320.9 301.7 319.2 301.7C318.4 301.7 317.9 301.1 318.8 299.6L324.9 288.9H323C323.1 287.3 321.5 285.1 319 285.1C317 285.1 314.1 286.7 312.5 289.5L308.8 295.8L308.6 296C305.9 299.2 303.2 301.7 301.5 301.7C300.7 301.7 300.2 301.1 301.1 299.6L304.9 293C306.2 290.7 305.6 289.4 304.4 287.9L302.3 285.3C301.8 284.6 301.8 283.8 302.5 283.1L300.5 280.9C298.3 282.8 298.2 285 299.5 286.7L299.8 287.1C298.1 289.5 295.9 292.7 293.4 295.6C293.5 295.7 293.6 295.8 293.7 295.9C290.6 299.5 287.9 301.8 284.9 303.1L289.7 294.9H286L285.6 295.6C283.6 299.1 281.3 301.7 278.3 301.7C275.7 301.7 275.2 299.1 277.5 295.2L278.6 293.3C279.3 293.4 280 293.5 280.8 293.5C294.3 293.5 300.8 275.4 288.9 275.4C286.8 275.4 284.3 276.9 282.6 279.8L276.7 290C274.5 288.8 273.3 286.7 273.3 284.6C273.3 282.8 274.1 281.1 275.7 279.8L274.5 277.6C271.8 279.5 270.6 282.1 270.6 284.7C270.6 287.7 272.3 290.6 275.4 292.2L274.3 294.2C271.6 298.8 272.1 303.9 277.5 303.9C279.1 303.9 280.5 303.4 281.6 302.7L280.6 304.4C275.5 306 272.3 308 272.3 310.9C272.3 314.5 277.9 315.3 280.6 310.6L283.5 305.6C287.4 304.4 291.3 301.7 295.5 296.8C295.4 296.7 295.4 296.6 295.3 296.4C297 294.4 298.4 292.5 301.3 288.6L301.8 289.2C302.3 289.8 302.5 290.6 302 291.4L298 298.4C296.4 301.2 297.5 303.8 300.6 303.8C302.5 303.8 304.6 302.6 306.6 300.8C306.6 302.5 307.7 303.8 309.9 303.8C311.4 303.8 313.3 302.8 315.2 301.3C315.4 302.8 316.6 303.8 318.5 303.8C320.3 303.8 322.3 302.7 324.2 301L322.8 303.4H326.6L332.4 293.3C338.2 286 340.8 287 339.1 289.8L334.2 298.4C332.6 301.2 333.7 303.8 336.8 303.8C338.8 303.8 341 302.4 343.2 300.5C343 302.4 344.2 303.8 346.5 303.8C348 303.8 349.9 302.8 351.8 301.3C352 302.8 353.2 303.8 355.1 303.8C358.2 303.8 361.8 300.4 365 296.8C364.6 296.6 363.9 296 363.4 295.8ZM285.5 281.6C286.6 279.7 287.9 278.8 288.9 278.8C294.9 278.8 290.7 291.1 280.8 291.1H280L285.5 281.6ZM277.4 310.2C276.6 311.6 275.3 311.4 275.3 310.4C275.3 309.4 276.2 308.3 279.1 307.2L277.4 310.2ZM317.1 296.4C314.8 300 312.5 301.7 311 301.7C310.2 301.7 309.7 301.1 310.6 299.6L315.9 290.4C317.9 286.9 322 287.8 320.1 291.2L317.1 296.4ZM353.8 296.2C351.5 300 349.2 301.7 347.6 301.7C346.8 301.7 346.3 301.1 347.2 299.6L352.5 290.4C354.5 286.9 358.6 287.8 356.7 291.2L353.8 296.2Z" fill="white"/>
<path d="M236.7 331.8L236.4 332.1C233.7 335.3 231 337.8 229.3 337.8C228.5 337.8 228 337.2 228.9 335.7L234.4 326.1C236 323.2 234.5 321.1 232.4 321.1C230.8 321.1 229 322 227.1 323.9L228.5 321.4H224.7L218.6 332C218.4 331.9 218.3 331.8 218.1 331.7L217.8 332C216.1 333.9 214 334.8 212.1 334.8L215.7 328.6C218 324.6 215.9 320.9 212.3 320.9C209.4 320.9 207.1 322.1 204.9 325.9L203 329.1L201.4 331.9C201.3 331.8 201.2 331.8 201.1 331.7L200.8 332C197.7 335.6 195 337.9 192 339.2L202.4 321.4H198.6L191.9 333.1C189 335.8 186.7 337.3 186 337C185.1 336.6 186 335.2 186.5 334.4L193.9 321.5H190.1L184 332C183.9 331.9 183.8 331.9 183.7 331.8L183.4 332.1C180.7 335.3 178 337.8 176.3 337.8C175.5 337.8 175 337.2 175.9 335.7L181.4 326.1C183 323.2 181.5 321.1 179.4 321.1C177.8 321.1 176 322 174.1 323.9L175.5 321.4H171.7L165.6 331.9C165.5 331.8 165.4 331.7 165.2 331.7L164.9 332C162.2 335.2 159.5 337.7 157.8 337.7C157 337.7 156.5 337.1 157.4 335.6L163.5 324.9H161.3C161.4 323.3 159.8 321.1 157.3 321.1C155.3 321.1 152.4 322.7 150.8 325.5L146.9 332.3C146.6 332.1 146.3 331.9 146.1 331.8L145.8 332.1C143.1 335.3 139.7 337.8 136 337.8C133.4 337.8 131.8 335.2 134.1 331.3L135.2 329.4C135.9 329.5 136.6 329.6 137.4 329.6C141.4 329.6 146 327.5 149 322.3C150.1 320.4 150.5 318.7 150.5 317.2C150.5 313.8 148.3 311.5 145.5 311.5C143.4 311.5 140.9 313 139.2 315.9L133.3 326.1C131.1 324.9 129.9 322.8 129.9 320.7C129.9 318.9 130.7 317.2 132.3 315.9L131.1 313.7C128.4 315.6 127.2 318.2 127.2 320.8C127.2 323.8 128.9 326.7 132 328.3L130.9 330.3C128.2 334.9 129.8 340 135.2 340C139.4 340 142.6 338.1 145.2 335.6C144.4 338 145.6 340 148.3 340C149.8 340 151.7 339 153.6 337.5C153.8 339 155 340 156.9 340C158.7 340 160.7 338.9 162.6 337.2L161.2 339.6H165L170.8 329.5C176.6 322.2 179.2 323.2 177.5 326L172.6 334.6C171 337.4 172.1 340 175.2 340C177.2 340 179.5 338.6 181.7 336.6C181.2 338.7 182.2 340 184.1 340C185.9 340 188 338.5 189.7 336.9L187.6 340.5C182.5 342 179.2 344.1 179.2 347C179.2 350.6 184.8 351.4 187.5 346.7L190.4 341.7C193.6 340.7 196.7 338.7 200 335.5C199.5 340.8 206.5 342 210.8 336.6H211.6C213 336.6 214.9 336.1 216.6 335.1L214.1 339.5H217.9L223.7 329.4C229.5 322.1 232.1 323.1 230.4 325.9L225.5 334.5C223.9 337.3 225 339.9 228.1 339.9C231.2 339.9 234.8 336.5 238 332.9C237.9 332.6 237.2 332 236.7 331.8ZM142.3 317.6C143.4 315.7 144.7 314.8 145.7 314.8C147.1 314.8 147.8 315.7 147.8 317.1C147.8 320.6 143.5 327 137.6 327H136.8L142.3 317.6ZM155.7 332.4C153.4 336 151.1 337.7 149.6 337.7C148.8 337.7 148.3 337.1 149.2 335.6L154.5 326.4C156.5 322.9 160.6 323.8 158.7 327.2L155.7 332.4ZM184.5 346.2C183.7 347.6 182.4 347.4 182.4 346.4C182.4 345.4 183.3 344.3 186.2 343.2L184.5 346.2ZM210.1 332H209.9C208.7 332 207.7 333 207.7 334.3C207.7 334.8 207.8 335.2 208.1 335.6V335.7C206.3 338.8 202 338.2 204.2 334.2L207.1 329.2L208.9 326.1C211.6 321.6 215.2 323.4 212.9 327.3L210.1 332Z" fill="white"/>
<path d="M324.6 333.1C324.4 332.5 323.7 331.9 323.2 331.8L322.9 332.1C321.5 333.7 319.8 335.2 318.3 336.2C319.5 332.6 319.2 327 321.6 322.2L318.8 320.7C317.2 322.9 313.8 327.8 310.4 331.8L310.1 332.1C307.4 335.3 304.7 337.8 303 337.8C302.2 337.8 301.4 337 301.4 335.2V333.6C304.1 333.9 306.9 332.2 308.7 329.1L309.7 327.3C313.2 321.2 307.5 319.2 303.6 322.8L309 313.4H305.2L294.4 332.2C294.2 332 293.9 331.8 293.7 331.7L293.4 332C290.7 335.2 287.2 337.7 284.5 337.7C282.2 337.7 280.8 336.2 282.5 333.2L286.4 326.4C288.6 322.6 292.5 323.3 290.2 327.2L289.7 328.1H292.8L293.3 327.2C295.3 323.7 293.4 321.1 290.3 321.1C287.2 321.1 284.8 322.7 283.2 325.5L279.5 331.9C279.4 331.9 279.3 331.8 279.3 331.8L279 332.1C276.3 335.3 273.6 337.8 271.9 337.8C271.1 337.8 270.6 337.2 271.5 335.7L279.6 321.5H275.8L269.1 333.3C266.2 335.9 264 337.4 263.3 337.1C262.4 336.7 263.3 335.3 263.8 334.5L271.2 321.6H267.4L260 334.3C259.2 335 258.3 335.7 257.6 336.3C258.8 332.7 258.5 327.1 260.9 322.3L258.1 320.8C256.5 323 247.8 334.6 244.3 338.6C244.6 339.1 245.2 339.5 245.7 339.9C247.9 337.4 255.1 328.1 256.4 326.3C254.9 330.2 255.7 337.3 252.1 337.3C250.8 337.3 250.3 335.9 250.3 335.9L247.9 337.1C247.9 337.1 248.6 340.2 252.1 340.2C252.5 340.2 252.8 340.2 253.2 340.1H253.3C255.2 339.8 257.1 339 258.9 337.7C258.9 339.2 259.8 340.2 261.4 340.2C263.5 340.2 265.8 338.3 267.6 336.6C267.2 338.6 268.4 340.2 270.8 340.2C273.2 340.2 275.8 338.3 278.3 335.8C278.3 338.3 280.3 340.2 283.4 340.2C286.5 340.2 289.5 338.5 292.2 336.2L290.1 339.9H293.9L298.2 332.4V335.4C298.2 338.6 298.8 340.3 301.9 340.3C305 340.3 308.6 336.9 311.8 333.3C314 330.8 315.8 328.2 317.2 326.4C315.7 330.3 316.5 337.4 312.9 337.4C311.6 337.4 311.1 336 311.1 336L308.7 337.2C308.7 337.2 309.4 340.3 312.9 340.3C313.3 340.3 313.6 340.3 314 340.2H314.1C317.9 339.5 321.8 336.4 324.6 333.1ZM299.4 330.1L300.5 328.2C304.9 322.1 307.9 323.8 306.5 326.1L304.7 329.2C303.6 331.2 300.3 332.6 299.4 330.1Z" fill="white"/>
<path d="M324.5 335.701C323.3 335.701 322.3 336.701 322.3 337.901C322.3 339.101 323.2 340.101 324.5 340.101C325.7 340.101 326.7 339.201 326.7 337.901C326.7 336.701 325.7 335.701 324.5 335.701Z" fill="white"/>
<path d="M324.7 334.2H328.5L340.4 313.5H336.6L324.7 334.2Z" fill="white"/>
<path d="M80.4006 277.599C80.4006 277.899 80.3006 278.199 80.2006 278.499C80.1006 278.799 79.9006 279.099 79.7006 279.299C79.5006 279.499 79.2006 279.699 78.9006 279.899C78.6006 279.999 78.2006 280.099 77.8006 280.099C77.3006 280.099 76.9006 279.999 76.5006 279.799C76.1006 279.599 75.7006 279.399 75.4006 279.099C75.1006 278.799 75.0006 278.499 74.8006 278.099C74.7006 277.699 74.6006 277.299 74.6006 276.799C74.6006 275.899 74.8006 275.199 75.1006 274.399C75.4006 273.699 75.8006 272.999 76.4006 272.499C76.6006 272.299 76.9006 271.999 77.2006 271.799C77.5006 271.599 77.8006 271.399 78.1006 271.299C78.4006 271.199 78.6006 270.999 78.8006 270.899C79.0006 270.799 79.1006 270.799 79.2006 270.699L80.6006 272.699C80.4006 272.799 80.1006 272.899 79.8006 273.099C79.5006 273.199 79.2006 273.399 78.9006 273.599C78.6006 273.799 78.4006 274.099 78.2006 274.399C78.0006 274.699 77.9006 274.999 77.9006 275.399C78.6006 275.399 79.1006 275.599 79.6006 275.999C80.2006 276.299 80.4006 276.899 80.4006 277.599ZM88.3006 277.599C88.3006 277.899 88.2006 278.199 88.1006 278.499C88.0006 278.799 87.8006 279.099 87.6006 279.299C87.4006 279.499 87.1006 279.699 86.8006 279.899C86.5006 279.999 86.1006 280.099 85.7006 280.099C85.2006 280.099 84.8006 279.999 84.4006 279.799C84.0006 279.599 83.6006 279.399 83.3006 279.099C83.1006 278.799 82.9006 278.499 82.7006 278.099C82.6006 277.699 82.5006 277.299 82.5006 276.799C82.5006 275.899 82.7006 275.199 83.0006 274.399C83.3006 273.699 83.7006 272.999 84.3006 272.499C84.5006 272.299 84.8006 271.999 85.1006 271.799C85.4006 271.599 85.7006 271.399 86.0006 271.299C86.3006 271.199 86.5006 270.999 86.7006 270.899C86.9006 270.799 87.0006 270.799 87.1006 270.699L88.5006 272.699C88.3006 272.799 88.0006 272.899 87.7006 273.099C87.4006 273.199 87.1006 273.399 86.8006 273.599C86.5006 273.799 86.3006 274.099 86.1006 274.399C85.9006 274.699 85.8006 274.999 85.8006 275.399C86.5006 275.399 87.0006 275.599 87.5006 275.999C88.0006 276.299 88.3006 276.899 88.3006 277.599Z" fill="white"/>
<path d="M353.4 336.5C353.4 336.2 353.5 335.9 353.6 335.6C353.7 335.3 353.9 335 354.1 334.8C354.3 334.6 354.6 334.4 354.9 334.2C355.2 334.1 355.6 334 356 334C356.5 334 356.9 334.1 357.3 334.3C357.7 334.5 358.1 334.7 358.4 335C358.7 335.3 358.8 335.6 359 336C359.1 336.4 359.2 336.8 359.2 337.3C359.2 338.2 359 338.9 358.7 339.7C358.4 340.4 358 341.1 357.4 341.6C357.2 341.8 356.9 342.1 356.6 342.3C356.3 342.5 356 342.7 355.7 342.8C355.4 342.9 355.2 343.1 355 343.2C354.8 343.3 354.7 343.3 354.6 343.4L353.2 341.4C353.4 341.3 353.7 341.2 354 341C354.3 340.9 354.6 340.7 354.9 340.5C355.2 340.3 355.4 340 355.6 339.7C355.8 339.4 355.9 339.1 355.9 338.7C355.2 338.7 354.7 338.5 354.2 338.1C353.7 337.8 353.4 337.2 353.4 336.5ZM345.6 336.5C345.6 336.2 345.7 335.9 345.8 335.6C345.9 335.3 346.1 335 346.3 334.8C346.5 334.6 346.8 334.4 347.1 334.2C347.4 334.1 347.8 334 348.2 334C348.7 334 349.1 334.1 349.5 334.3C349.9 334.5 350.3 334.7 350.6 335C350.8 335.3 351 335.6 351.2 336C351.3 336.4 351.4 336.8 351.4 337.3C351.4 338.2 351.2 338.9 350.9 339.7C350.6 340.4 350.2 341.1 349.6 341.6C349.4 341.8 349.1 342.1 348.8 342.3C348.5 342.5 348.2 342.7 347.9 342.8C347.6 342.9 347.4 343.1 347.2 343.2C347 343.3 346.9 343.3 346.8 343.4L345.4 341.4C345.7 341.3 345.9 341.2 346.2 341C346.5 340.9 346.8 340.7 347.1 340.5C347.4 340.3 347.6 340 347.8 339.7C348 339.4 348.1 339.1 348.1 338.7C347.4 338.7 346.9 338.5 346.4 338.1C345.8 337.8 345.6 337.2 345.6 336.5Z" fill="white"/>
</svg>
